<mxfile host="65bd71144e">
    <diagram id="yi_KGAg5PP_Yf4ZSJqFj" name="第 1 页">
        <mxGraphModel dx="1181" dy="488" grid="1" gridSize="10" guides="1" tooltips="1" connect="1" arrows="1" fold="1" page="0" pageScale="1" pageWidth="827" pageHeight="1169" math="0" shadow="0">
            <root>
                <mxCell id="0"/>
                <mxCell id="1" parent="0"/>
                <mxCell id="26" style="edgeStyle=none;html=1;exitX=1;exitY=0.5;exitDx=0;exitDy=0;endArrow=none;endFill=0;" edge="1" parent="1" source="5" target="11">
                    <mxGeometry relative="1" as="geometry"/>
                </mxCell>
                <mxCell id="5" value="电池" style="rounded=0;whiteSpace=wrap;html=1;" vertex="1" parent="1">
                    <mxGeometry x="30" y="125" width="90" height="40" as="geometry"/>
                </mxCell>
                <mxCell id="68" style="edgeStyle=none;html=1;exitX=1;exitY=0.5;exitDx=0;exitDy=0;endArrow=none;endFill=0;" edge="1" parent="1" source="11">
                    <mxGeometry relative="1" as="geometry">
                        <mxPoint x="400" y="144.0487804878049" as="targetPoint"/>
                    </mxGeometry>
                </mxCell>
                <mxCell id="11" value="供电模块" style="rounded=0;whiteSpace=wrap;html=1;" vertex="1" parent="1">
                    <mxGeometry x="260" y="124" width="90" height="40" as="geometry"/>
                </mxCell>
                <mxCell id="12" value="视觉传感器接口" style="rounded=0;whiteSpace=wrap;html=1;" vertex="1" parent="1">
                    <mxGeometry x="260" y="466" width="90" height="40" as="geometry"/>
                </mxCell>
                <mxCell id="69" style="edgeStyle=none;html=1;exitX=1;exitY=0.5;exitDx=0;exitDy=0;endArrow=none;endFill=0;" edge="1" parent="1" source="15">
                    <mxGeometry relative="1" as="geometry">
                        <mxPoint x="400" y="211.85365853658539" as="targetPoint"/>
                    </mxGeometry>
                </mxCell>
                <mxCell id="15" value="诊断接口" style="rounded=0;whiteSpace=wrap;html=1;" vertex="1" parent="1">
                    <mxGeometry x="260" y="192" width="90" height="40" as="geometry"/>
                </mxCell>
                <mxCell id="70" style="edgeStyle=none;html=1;exitX=1;exitY=0.5;exitDx=0;exitDy=0;endArrow=none;endFill=0;" edge="1" parent="1" source="16">
                    <mxGeometry relative="1" as="geometry">
                        <mxPoint x="400" y="281.1219512195122" as="targetPoint"/>
                    </mxGeometry>
                </mxCell>
                <mxCell id="16" value="&lt;span&gt;视频输出&lt;/span&gt;" style="rounded=0;whiteSpace=wrap;html=1;" vertex="1" parent="1">
                    <mxGeometry x="260" y="261" width="90" height="40" as="geometry"/>
                </mxCell>
                <mxCell id="17" value="CAN接口" style="rounded=0;whiteSpace=wrap;html=1;" vertex="1" parent="1">
                    <mxGeometry x="260" y="329" width="90" height="40" as="geometry"/>
                </mxCell>
                <mxCell id="18" value="以太网接口" style="rounded=0;whiteSpace=wrap;html=1;" vertex="1" parent="1">
                    <mxGeometry x="260" y="397" width="90" height="40" as="geometry"/>
                </mxCell>
                <mxCell id="51" style="edgeStyle=none;html=1;exitX=1;exitY=0.5;exitDx=0;exitDy=0;entryX=0;entryY=0.5;entryDx=0;entryDy=0;endArrow=none;endFill=0;" edge="1" parent="1" source="22" target="15">
                    <mxGeometry relative="1" as="geometry"/>
                </mxCell>
                <mxCell id="82" style="edgeStyle=none;html=1;exitX=0;exitY=0.75;exitDx=0;exitDy=0;entryX=0.5;entryY=0;entryDx=0;entryDy=0;endArrow=none;endFill=0;" edge="1" parent="1" source="22" target="24">
                    <mxGeometry relative="1" as="geometry">
                        <Array as="points">
                            <mxPoint x="-20" y="223"/>
                        </Array>
                    </mxGeometry>
                </mxCell>
                <mxCell id="98" style="edgeStyle=none;html=1;exitX=0;exitY=0.25;exitDx=0;exitDy=0;fontColor=#0A0A0A;endArrow=none;endFill=0;" edge="1" parent="1" source="22">
                    <mxGeometry relative="1" as="geometry">
                        <mxPoint x="-210" y="203" as="targetPoint"/>
                    </mxGeometry>
                </mxCell>
                <mxCell id="22" value="OBD" style="rounded=0;whiteSpace=wrap;html=1;" vertex="1" parent="1">
                    <mxGeometry x="30" y="193" width="90" height="40" as="geometry"/>
                </mxCell>
                <mxCell id="86" style="edgeStyle=none;html=1;exitX=0;exitY=0.75;exitDx=0;exitDy=0;entryX=0.75;entryY=0;entryDx=0;entryDy=0;endArrow=none;endFill=0;" edge="1" parent="1" source="23" target="24">
                    <mxGeometry relative="1" as="geometry">
                        <Array as="points">
                            <mxPoint x="3" y="291"/>
                        </Array>
                    </mxGeometry>
                </mxCell>
                <mxCell id="112" style="edgeStyle=none;html=1;exitX=0;exitY=0.5;exitDx=0;exitDy=0;dashed=1;fontColor=#FFFFFF;endArrow=none;endFill=0;" edge="1" parent="1" source="23">
                    <mxGeometry relative="1" as="geometry">
                        <mxPoint x="-270" y="340" as="targetPoint"/>
                    </mxGeometry>
                </mxCell>
                <mxCell id="23" value="IVI" style="rounded=0;whiteSpace=wrap;html=1;" vertex="1" parent="1">
                    <mxGeometry x="30" y="261" width="90" height="40" as="geometry"/>
                </mxCell>
                <mxCell id="52" style="edgeStyle=none;html=1;exitX=1;exitY=0.5;exitDx=0;exitDy=0;entryX=0;entryY=0.5;entryDx=0;entryDy=0;endArrow=none;endFill=0;" edge="1" parent="1" source="24" target="17">
                    <mxGeometry relative="1" as="geometry"/>
                </mxCell>
                <mxCell id="85" style="edgeStyle=none;html=1;exitX=0.5;exitY=1;exitDx=0;exitDy=0;entryX=0;entryY=0.5;entryDx=0;entryDy=0;endArrow=none;endFill=0;" edge="1" parent="1" source="24" target="84">
                    <mxGeometry relative="1" as="geometry">
                        <Array as="points">
                            <mxPoint x="-20" y="417"/>
                        </Array>
                    </mxGeometry>
                </mxCell>
                <mxCell id="24" value="中央网关" style="rounded=0;whiteSpace=wrap;html=1;" vertex="1" parent="1">
                    <mxGeometry x="-65" y="330" width="90" height="40" as="geometry"/>
                </mxCell>
                <mxCell id="53" style="edgeStyle=none;html=1;exitX=1;exitY=0.75;exitDx=0;exitDy=0;entryX=0;entryY=0.5;entryDx=0;entryDy=0;endArrow=none;endFill=0;" edge="1" parent="1" source="24" target="18">
                    <mxGeometry relative="1" as="geometry">
                        <mxPoint x="120" y="418" as="sourcePoint"/>
                        <Array as="points">
                            <mxPoint x="60" y="360"/>
                            <mxPoint x="240" y="360"/>
                            <mxPoint x="240" y="417"/>
                        </Array>
                    </mxGeometry>
                </mxCell>
                <mxCell id="28" value="" style="endArrow=none;html=1;exitX=1;exitY=0.5;exitDx=0;exitDy=0;entryX=0;entryY=0.5;entryDx=0;entryDy=0;" edge="1" parent="1" source="23" target="16">
                    <mxGeometry width="50" height="50" relative="1" as="geometry">
                        <mxPoint x="350" y="470" as="sourcePoint"/>
                        <mxPoint x="400" y="420" as="targetPoint"/>
                    </mxGeometry>
                </mxCell>
                <mxCell id="32" value="车/域控制器&lt;br&gt;安全边界" style="text;html=1;strokeColor=none;fillColor=none;align=center;verticalAlign=middle;whiteSpace=wrap;rounded=0;" vertex="1" parent="1">
                    <mxGeometry x="180" y="50" width="100" height="30" as="geometry"/>
                </mxCell>
                <mxCell id="36" value="外部环境与车辆&lt;br&gt;安全边界" style="text;html=1;strokeColor=none;fillColor=none;align=center;verticalAlign=middle;whiteSpace=wrap;rounded=0;" vertex="1" parent="1">
                    <mxGeometry x="-210" y="50" width="130" height="30" as="geometry"/>
                </mxCell>
                <mxCell id="56" style="edgeStyle=none;html=1;exitX=1;exitY=0.5;exitDx=0;exitDy=0;endArrow=none;endFill=0;" edge="1" parent="1" source="37">
                    <mxGeometry relative="1" as="geometry">
                        <mxPoint x="400" y="554" as="targetPoint"/>
                    </mxGeometry>
                </mxCell>
                <mxCell id="37" value="雷达传感器接口" style="rounded=0;whiteSpace=wrap;html=1;" vertex="1" parent="1">
                    <mxGeometry x="260" y="534" width="90" height="40" as="geometry"/>
                </mxCell>
                <mxCell id="45" value="" style="shape=mxgraph.cisco.people.man_woman;html=1;pointerEvents=1;dashed=0;fillColor=#036897;strokeColor=#ffffff;strokeWidth=2;verticalLabelPosition=bottom;verticalAlign=top;align=center;outlineConnect=0;" vertex="1" parent="1">
                    <mxGeometry x="-363" y="550" width="36" height="35" as="geometry"/>
                </mxCell>
                <mxCell id="47" value="" style="curved=1;endArrow=none;html=1;endFill=0;dashed=1;entryX=0.5;entryY=1;entryDx=0;entryDy=0;fillColor=#e51400;strokeColor=#B20000;strokeWidth=2;" edge="1" parent="1">
                    <mxGeometry width="50" height="50" relative="1" as="geometry">
                        <mxPoint x="-106" y="680" as="sourcePoint"/>
                        <mxPoint x="-151" y="80" as="targetPoint"/>
                        <Array as="points">
                            <mxPoint x="-166" y="570"/>
                            <mxPoint x="-216" y="390"/>
                            <mxPoint x="-186" y="150"/>
                        </Array>
                    </mxGeometry>
                </mxCell>
                <mxCell id="54" style="edgeStyle=none;html=1;exitX=1;exitY=0.5;exitDx=0;exitDy=0;entryX=0;entryY=0.5;entryDx=0;entryDy=0;endArrow=none;endFill=0;" edge="1" parent="1" source="49" target="12">
                    <mxGeometry relative="1" as="geometry"/>
                </mxCell>
                <mxCell id="78" value="" style="edgeStyle=none;html=1;exitX=0;exitY=0.5;exitDx=0;exitDy=0;endArrow=none;endFill=0;dashed=1;startArrow=classic;startFill=1;" edge="1" parent="1" source="49">
                    <mxGeometry relative="1" as="geometry">
                        <mxPoint x="-210" y="500" as="targetPoint"/>
                    </mxGeometry>
                </mxCell>
                <mxCell id="49" value="摄像头" style="rounded=0;whiteSpace=wrap;html=1;" vertex="1" parent="1">
                    <mxGeometry x="30" y="466" width="90" height="40" as="geometry"/>
                </mxCell>
                <mxCell id="55" style="edgeStyle=none;html=1;exitX=1;exitY=0.5;exitDx=0;exitDy=0;entryX=0;entryY=0.5;entryDx=0;entryDy=0;endArrow=none;endFill=0;" edge="1" parent="1" source="50" target="37">
                    <mxGeometry relative="1" as="geometry"/>
                </mxCell>
                <mxCell id="79" style="edgeStyle=none;html=1;exitX=0;exitY=0.5;exitDx=0;exitDy=0;endArrow=none;endFill=0;dashed=1;startArrow=classic;startFill=1;" edge="1" parent="1" source="50">
                    <mxGeometry relative="1" as="geometry">
                        <mxPoint x="-200" y="520" as="targetPoint"/>
                    </mxGeometry>
                </mxCell>
                <mxCell id="50" value="雷达" style="rounded=0;whiteSpace=wrap;html=1;" vertex="1" parent="1">
                    <mxGeometry x="30" y="534" width="90" height="40" as="geometry"/>
                </mxCell>
                <mxCell id="61" value="" style="shape=link;html=1;endArrow=none;endFill=0;" edge="1" parent="1">
                    <mxGeometry width="100" relative="1" as="geometry">
                        <mxPoint x="402" y="100" as="sourcePoint"/>
                        <mxPoint x="402" y="580" as="targetPoint"/>
                    </mxGeometry>
                </mxCell>
                <mxCell id="62" value="内部总线" style="text;html=1;strokeColor=none;fillColor=none;align=center;verticalAlign=middle;whiteSpace=wrap;rounded=0;" vertex="1" parent="1">
                    <mxGeometry x="370" y="70" width="60" height="30" as="geometry"/>
                </mxCell>
                <mxCell id="64" value="" style="curved=1;endArrow=none;html=1;endFill=0;dashed=1;entryX=0.5;entryY=1;entryDx=0;entryDy=0;fillColor=#e51400;strokeColor=#B20000;strokeWidth=2;" edge="1" parent="1">
                    <mxGeometry width="50" height="50" relative="1" as="geometry">
                        <mxPoint x="270" y="680" as="sourcePoint"/>
                        <mxPoint x="225" y="80" as="targetPoint"/>
                        <Array as="points">
                            <mxPoint x="210" y="570"/>
                            <mxPoint x="160" y="390"/>
                            <mxPoint x="190" y="150"/>
                        </Array>
                    </mxGeometry>
                </mxCell>
                <mxCell id="65" style="edgeStyle=none;html=1;exitX=1;exitY=0.5;exitDx=0;exitDy=0;endArrow=none;endFill=0;" edge="1" parent="1">
                    <mxGeometry relative="1" as="geometry">
                        <mxPoint x="350" y="485.76" as="sourcePoint"/>
                        <mxPoint x="400" y="485.76" as="targetPoint"/>
                    </mxGeometry>
                </mxCell>
                <mxCell id="66" style="edgeStyle=none;html=1;exitX=1;exitY=0.5;exitDx=0;exitDy=0;endArrow=none;endFill=0;" edge="1" parent="1">
                    <mxGeometry relative="1" as="geometry">
                        <mxPoint x="350" y="416.76" as="sourcePoint"/>
                        <mxPoint x="400" y="416.76" as="targetPoint"/>
                    </mxGeometry>
                </mxCell>
                <mxCell id="67" style="edgeStyle=none;html=1;exitX=1;exitY=0.5;exitDx=0;exitDy=0;endArrow=none;endFill=0;" edge="1" parent="1">
                    <mxGeometry relative="1" as="geometry">
                        <mxPoint x="350" y="348.76" as="sourcePoint"/>
                        <mxPoint x="400" y="348.76" as="targetPoint"/>
                    </mxGeometry>
                </mxCell>
                <mxCell id="81" style="edgeStyle=none;html=1;exitX=1;exitY=0.5;exitDx=0;exitDy=0;entryX=0;entryY=0.5;entryDx=0;entryDy=0;endArrow=none;endFill=0;" edge="1" parent="1" source="80" target="24">
                    <mxGeometry relative="1" as="geometry"/>
                </mxCell>
                <mxCell id="87" style="edgeStyle=none;html=1;exitX=0;exitY=0.5;exitDx=0;exitDy=0;endArrow=none;endFill=0;dashed=1;" edge="1" parent="1" source="80">
                    <mxGeometry relative="1" as="geometry">
                        <mxPoint x="-260" y="300" as="targetPoint"/>
                    </mxGeometry>
                </mxCell>
                <mxCell id="106" value="" style="edgeStyle=none;html=1;exitX=0;exitY=0.5;exitDx=0;exitDy=0;dashed=1;fontColor=#FFFFFF;endArrow=none;endFill=0;" edge="1" parent="1" source="80">
                    <mxGeometry relative="1" as="geometry">
                        <mxPoint x="-270" y="350" as="targetPoint"/>
                    </mxGeometry>
                </mxCell>
                <mxCell id="110" value="" style="edgeStyle=none;html=1;exitX=0;exitY=0.5;exitDx=0;exitDy=0;dashed=1;fontColor=#FFFFFF;endArrow=none;endFill=0;" edge="1" parent="1" source="80">
                    <mxGeometry relative="1" as="geometry">
                        <mxPoint x="-260" y="400" as="targetPoint"/>
                    </mxGeometry>
                </mxCell>
                <mxCell id="80" value="T-Box" style="rounded=0;whiteSpace=wrap;html=1;" vertex="1" parent="1">
                    <mxGeometry x="-185" y="330" width="90" height="40" as="geometry"/>
                </mxCell>
                <mxCell id="84" value="其他预控制器&lt;br&gt;1～N" style="rounded=0;whiteSpace=wrap;html=1;" vertex="1" parent="1">
                    <mxGeometry x="30" y="397" width="90" height="40" as="geometry"/>
                </mxCell>
                <mxCell id="88" value="" style="shape=mxgraph.signs.transportation.car_1;html=1;pointerEvents=1;fillColor=#f9f7ed;strokeColor=#36393d;verticalLabelPosition=bottom;verticalAlign=top;align=center;" vertex="1" parent="1">
                    <mxGeometry x="-364.5" y="474" width="39" height="40" as="geometry"/>
                </mxCell>
                <mxCell id="91" value="" style="html=1;outlineConnect=0;fillColor=#CCCCCC;strokeColor=#6881B3;gradientColor=none;gradientDirection=north;strokeWidth=2;shape=mxgraph.networks.cloud;fontColor=#ffffff;" vertex="1" parent="1">
                    <mxGeometry x="-391.5" y="247" width="90" height="50" as="geometry"/>
                </mxCell>
                <mxCell id="95" style="edgeStyle=none;html=1;exitX=1;exitY=0.5;exitDx=0;exitDy=0;entryX=0.25;entryY=0;entryDx=0;entryDy=0;fontColor=#0A0A0A;endArrow=none;endFill=0;" edge="1" parent="1" source="94" target="24">
                    <mxGeometry relative="1" as="geometry">
                        <Array as="points">
                            <mxPoint x="-42" y="274"/>
                        </Array>
                    </mxGeometry>
                </mxCell>
                <mxCell id="96" style="edgeStyle=none;html=1;exitX=0;exitY=0.5;exitDx=0;exitDy=0;fontColor=#0A0A0A;endArrow=none;endFill=0;dashed=1;" edge="1" parent="1" source="94">
                    <mxGeometry relative="1" as="geometry">
                        <mxPoint x="-260" y="290" as="targetPoint"/>
                    </mxGeometry>
                </mxCell>
                <mxCell id="94" value="后装OBU" style="rounded=0;whiteSpace=wrap;html=1;" vertex="1" parent="1">
                    <mxGeometry x="-185" y="254" width="90" height="40" as="geometry"/>
                </mxCell>
                <mxCell id="99" value="" style="sketch=0;aspect=fixed;pointerEvents=1;shadow=0;dashed=0;html=1;strokeColor=#36393d;labelPosition=center;verticalLabelPosition=bottom;verticalAlign=top;align=center;fillColor=#eeeeee;shape=mxgraph.mscae.enterprise.tool;" vertex="1" parent="1">
                    <mxGeometry x="-371.5" y="176" width="50" height="45" as="geometry"/>
                </mxCell>
                <mxCell id="103" value="" style="html=1;verticalLabelPosition=bottom;labelBackgroundColor=#ffffff;verticalAlign=top;shadow=0;dashed=0;strokeWidth=1;shape=mxgraph.ios7.misc.iphone;strokeColor=#c0c0c0;fontColor=#FFFFFF;" vertex="1" parent="1">
                    <mxGeometry x="-359" y="321" width="25" height="50" as="geometry"/>
                </mxCell>
                <mxCell id="108" value="" style="verticalLabelPosition=bottom;html=1;verticalAlign=top;align=center;strokeColor=none;fillColor=#00BEF2;shape=mxgraph.azure.access_control;fontColor=#FFFFFF;" vertex="1" parent="1">
                    <mxGeometry x="-371.5" y="395" width="50" height="50" as="geometry"/>
                </mxCell>
                <mxCell id="128" value="" style="ellipse;shape=doubleEllipse;whiteSpace=wrap;html=1;aspect=fixed;fontColor=#FFFFFF;" vertex="1" parent="1">
                    <mxGeometry x="490" y="350" width="80" height="80" as="geometry"/>
                </mxCell>
                <mxCell id="147" style="edgeStyle=none;html=1;exitX=0;exitY=1;exitDx=0;exitDy=0;entryX=0.5;entryY=0;entryDx=0;entryDy=0;fontColor=#FFFFFF;startArrow=none;startFill=0;endArrow=classic;endFill=1;strokeWidth=1;" edge="1" parent="1" source="130" target="139">
                    <mxGeometry relative="1" as="geometry">
                        <Array as="points">
                            <mxPoint x="564" y="210"/>
                        </Array>
                    </mxGeometry>
                </mxCell>
                <mxCell id="149" style="edgeStyle=none;html=1;exitX=0;exitY=0.5;exitDx=0;exitDy=0;fontColor=#FFFFFF;startArrow=none;startFill=0;endArrow=classic;endFill=1;strokeWidth=1;" edge="1" parent="1" source="130">
                    <mxGeometry relative="1" as="geometry">
                        <mxPoint x="410" y="190" as="targetPoint"/>
                        <Array as="points">
                            <mxPoint x="490" y="180"/>
                        </Array>
                    </mxGeometry>
                </mxCell>
                <mxCell id="130" value="" style="ellipse;whiteSpace=wrap;html=1;aspect=fixed;fontColor=#FFFFFF;" vertex="1" parent="1">
                    <mxGeometry x="552.5" y="100" width="80" height="80" as="geometry"/>
                </mxCell>
                <mxCell id="156" style="edgeStyle=none;html=1;exitX=0.5;exitY=1;exitDx=0;exitDy=0;entryX=0.5;entryY=0;entryDx=0;entryDy=0;fontColor=#FFFFFF;startArrow=none;startFill=0;endArrow=classic;endFill=1;strokeWidth=1;" edge="1" parent="1" source="131" target="155">
                    <mxGeometry relative="1" as="geometry">
                        <Array as="points">
                            <mxPoint x="680" y="440"/>
                        </Array>
                    </mxGeometry>
                </mxCell>
                <mxCell id="131" value="" style="ellipse;shape=doubleEllipse;whiteSpace=wrap;html=1;aspect=fixed;fontColor=#FFFFFF;" vertex="1" parent="1">
                    <mxGeometry x="640" y="340" width="80" height="80" as="geometry"/>
                </mxCell>
                <mxCell id="161" value="" style="edgeStyle=none;html=1;exitX=1;exitY=0.5;exitDx=0;exitDy=0;entryX=0.5;entryY=0;entryDx=0;entryDy=0;fontColor=#FFFFFF;startArrow=none;startFill=0;endArrow=classic;endFill=1;strokeWidth=1;" edge="1" parent="1" source="132">
                    <mxGeometry x="0.4538" y="36" relative="1" as="geometry">
                        <mxPoint x="672.4999999999998" y="594" as="targetPoint"/>
                        <Array as="points">
                            <mxPoint x="650" y="545"/>
                        </Array>
                        <mxPoint y="-1" as="offset"/>
                    </mxGeometry>
                </mxCell>
                <mxCell id="132" value="" style="ellipse;shape=doubleEllipse;whiteSpace=wrap;html=1;aspect=fixed;fontColor=#FFFFFF;" vertex="1" parent="1">
                    <mxGeometry x="490" y="474" width="80" height="80" as="geometry"/>
                </mxCell>
                <mxCell id="151" value="" style="edgeStyle=none;html=1;exitX=0.5;exitY=0;exitDx=0;exitDy=0;fontColor=#FFFFFF;startArrow=none;startFill=0;endArrow=classic;endFill=1;strokeWidth=1;" edge="1" parent="1" source="139">
                    <mxGeometry relative="1" as="geometry">
                        <mxPoint x="560" y="170" as="targetPoint"/>
                        <Array as="points">
                            <mxPoint x="525" y="200"/>
                        </Array>
                    </mxGeometry>
                </mxCell>
                <mxCell id="139" value="" style="shape=partialRectangle;whiteSpace=wrap;html=1;left=0;right=0;fillColor=none;fontColor=#FFFFFF;" vertex="1" parent="1">
                    <mxGeometry x="480" y="230" width="90" height="40" as="geometry"/>
                </mxCell>
                <mxCell id="140" value="" style="shape=partialRectangle;whiteSpace=wrap;html=1;left=0;right=0;fillColor=none;fontColor=#FFFFFF;" vertex="1" parent="1">
                    <mxGeometry x="600" y="230" width="90" height="40" as="geometry"/>
                </mxCell>
                <mxCell id="142" value="" style="curved=1;endArrow=none;html=1;endFill=0;dashed=1;entryX=0.5;entryY=1;entryDx=0;entryDy=0;fillColor=#e51400;strokeColor=#B20000;strokeWidth=2;" edge="1" parent="1">
                    <mxGeometry width="50" height="50" relative="1" as="geometry">
                        <mxPoint x="535" y="680" as="sourcePoint"/>
                        <mxPoint x="490" y="80" as="targetPoint"/>
                        <Array as="points">
                            <mxPoint x="475" y="570"/>
                            <mxPoint x="425" y="390"/>
                            <mxPoint x="455" y="150"/>
                        </Array>
                    </mxGeometry>
                </mxCell>
                <mxCell id="143" value="域控制器与SoC/MCU&lt;br&gt;安全边界" style="text;html=1;strokeColor=none;fillColor=none;align=center;verticalAlign=middle;whiteSpace=wrap;rounded=0;" vertex="1" parent="1">
                    <mxGeometry x="427.5" y="50" width="125" height="30" as="geometry"/>
                </mxCell>
                <mxCell id="144" value="" style="endArrow=classic;html=1;fontColor=#FF3333;strokeWidth=1;entryX=0;entryY=0;entryDx=0;entryDy=0;" edge="1" parent="1" target="130">
                    <mxGeometry width="50" height="50" relative="1" as="geometry">
                        <mxPoint x="410" y="180" as="sourcePoint"/>
                        <mxPoint x="540" y="190" as="targetPoint"/>
                        <Array as="points">
                            <mxPoint x="470" y="120"/>
                        </Array>
                    </mxGeometry>
                </mxCell>
                <mxCell id="152" style="edgeStyle=none;html=1;exitX=1;exitY=0;exitDx=0;exitDy=0;entryX=0.25;entryY=1;entryDx=0;entryDy=0;fontColor=#FFFFFF;startArrow=none;startFill=0;endArrow=classic;endFill=1;strokeWidth=1;" edge="1" parent="1" source="128" target="140">
                    <mxGeometry relative="1" as="geometry">
                        <mxPoint x="574.2157287525383" y="246.2842712474618" as="sourcePoint"/>
                        <mxPoint x="535" y="308" as="targetPoint"/>
                        <Array as="points">
                            <mxPoint x="600" y="330"/>
                        </Array>
                    </mxGeometry>
                </mxCell>
                <mxCell id="154" value="" style="edgeStyle=none;html=1;exitX=0.25;exitY=1;exitDx=0;exitDy=0;fontColor=#FFFFFF;startArrow=none;startFill=0;endArrow=classic;endFill=1;strokeWidth=1;entryX=1;entryY=0;entryDx=0;entryDy=0;" edge="1" parent="1" source="140" target="128">
                    <mxGeometry relative="1" as="geometry">
                        <mxPoint x="570" y="180" as="targetPoint"/>
                        <mxPoint x="535" y="240" as="sourcePoint"/>
                        <Array as="points">
                            <mxPoint x="558" y="320"/>
                        </Array>
                    </mxGeometry>
                </mxCell>
                <mxCell id="157" style="edgeStyle=none;html=1;exitX=0.5;exitY=0;exitDx=0;exitDy=0;entryX=0.5;entryY=1;entryDx=0;entryDy=0;fontColor=#FFFFFF;startArrow=none;startFill=0;endArrow=classic;endFill=1;strokeWidth=1;" edge="1" parent="1" source="155" target="131">
                    <mxGeometry relative="1" as="geometry">
                        <Array as="points">
                            <mxPoint x="640" y="450"/>
                        </Array>
                    </mxGeometry>
                </mxCell>
                <mxCell id="155" value="" style="shape=partialRectangle;whiteSpace=wrap;html=1;left=0;right=0;fillColor=none;fontColor=#FFFFFF;" vertex="1" parent="1">
                    <mxGeometry x="615" y="474" width="90" height="40" as="geometry"/>
                </mxCell>
                <mxCell id="162" value="" style="edgeStyle=none;html=1;exitX=0.5;exitY=0;exitDx=0;exitDy=0;entryX=1;entryY=0.5;entryDx=0;entryDy=0;fontColor=#FFFFFF;startArrow=none;startFill=0;endArrow=classic;endFill=1;strokeWidth=1;" edge="1" parent="1" target="132">
                    <mxGeometry relative="1" as="geometry">
                        <mxPoint x="672.4999999999998" y="594" as="sourcePoint"/>
                        <Array as="points">
                            <mxPoint x="610" y="580"/>
                        </Array>
                    </mxGeometry>
                </mxCell>
                <mxCell id="164" value="" style="endArrow=classic;html=1;fontColor=#FF3333;strokeWidth=1;entryX=0.025;entryY=0.308;entryDx=0;entryDy=0;entryPerimeter=0;" edge="1" parent="1" target="128">
                    <mxGeometry width="50" height="50" relative="1" as="geometry">
                        <mxPoint x="400" y="398.28" as="sourcePoint"/>
                        <mxPoint x="554.2157287525383" y="329.9957287525382" as="targetPoint"/>
                        <Array as="points">
                            <mxPoint x="450" y="370"/>
                        </Array>
                    </mxGeometry>
                </mxCell>
                <mxCell id="168" value="" style="endArrow=classic;html=1;fontColor=#FF3333;strokeWidth=1;entryX=0.002;entryY=0.625;entryDx=0;entryDy=0;entryPerimeter=0;" edge="1" parent="1">
                    <mxGeometry width="50" height="50" relative="1" as="geometry">
                        <mxPoint x="570" y="392.07" as="sourcePoint"/>
                        <mxPoint x="640.1599999999999" y="387.93" as="targetPoint"/>
                        <Array as="points">
                            <mxPoint x="600" y="367.93"/>
                        </Array>
                    </mxGeometry>
                </mxCell>
                <mxCell id="171" value="" style="edgeStyle=none;html=1;exitX=0.002;exitY=0.71;exitDx=0;exitDy=0;fontColor=#FFFFFF;startArrow=none;startFill=0;endArrow=classic;endFill=1;strokeWidth=1;exitPerimeter=0;" edge="1" parent="1" source="131">
                    <mxGeometry x="-0.362" y="3" relative="1" as="geometry">
                        <mxPoint x="510.00000000001137" y="445" as="sourcePoint"/>
                        <mxPoint x="410" y="420" as="targetPoint"/>
                        <Array as="points">
                            <mxPoint x="600" y="440"/>
                            <mxPoint x="570" y="450"/>
                            <mxPoint x="530" y="450"/>
                        </Array>
                        <mxPoint as="offset"/>
                    </mxGeometry>
                </mxCell>
                <mxCell id="172" value="" style="endArrow=classic;html=1;fontColor=#FF3333;strokeWidth=1;entryX=0.002;entryY=0.251;entryDx=0;entryDy=0;entryPerimeter=0;" edge="1" parent="1" target="132">
                    <mxGeometry width="50" height="50" relative="1" as="geometry">
                        <mxPoint x="410" y="494" as="sourcePoint"/>
                        <mxPoint x="492" y="482.3600000000001" as="targetPoint"/>
                        <Array as="points">
                            <mxPoint x="450" y="480"/>
                        </Array>
                    </mxGeometry>
                </mxCell>
                <mxCell id="176" style="edgeStyle=none;html=1;exitX=0;exitY=0.325;exitDx=0;exitDy=0;fontColor=#FFFFFF;startArrow=none;startFill=0;endArrow=classic;endFill=1;strokeWidth=1;exitPerimeter=0;" edge="1" parent="1" source="132">
                    <mxGeometry relative="1" as="geometry">
                        <mxPoint x="466.7157287525383" y="500.0042712474617" as="sourcePoint"/>
                        <mxPoint x="410" y="500" as="targetPoint"/>
                        <Array as="points">
                            <mxPoint x="450" y="514"/>
                        </Array>
                    </mxGeometry>
                </mxCell>
                <mxCell id="178" value="" style="endArrow=classic;html=1;fontColor=#FF3333;strokeWidth=1;exitX=0.92;exitY=0.96;exitDx=0;exitDy=0;exitPerimeter=0;" edge="1" parent="1" source="99">
                    <mxGeometry width="50" height="50" relative="1" as="geometry">
                        <mxPoint x="-320" y="240" as="sourcePoint"/>
                        <mxPoint x="-220" y="210" as="targetPoint"/>
                    </mxGeometry>
                </mxCell>
                <mxCell id="181" value="" style="endArrow=classic;html=1;fontColor=#FF3333;strokeWidth=1;" edge="1" parent="1">
                    <mxGeometry width="50" height="50" relative="1" as="geometry">
                        <mxPoint x="-321.5" y="245" as="sourcePoint"/>
                        <mxPoint x="-250" y="275" as="targetPoint"/>
                    </mxGeometry>
                </mxCell>
                <mxCell id="188" value="" style="endArrow=classic;html=1;fontColor=#FF3333;strokeWidth=1;" edge="1" parent="1">
                    <mxGeometry width="50" height="50" relative="1" as="geometry">
                        <mxPoint x="-301.5" y="536" as="sourcePoint"/>
                        <mxPoint x="-201.5" y="506" as="targetPoint"/>
                    </mxGeometry>
                </mxCell>
                <mxCell id="190" value="" style="endArrow=classic;html=1;fontColor=#FF3333;strokeWidth=1;" edge="1" parent="1">
                    <mxGeometry width="50" height="50" relative="1" as="geometry">
                        <mxPoint x="-330" y="390" as="sourcePoint"/>
                        <mxPoint x="-260" y="370" as="targetPoint"/>
                    </mxGeometry>
                </mxCell>
                <mxCell id="192" value="" style="endArrow=classic;html=1;fontColor=#FF3333;strokeWidth=1;" edge="1" parent="1">
                    <mxGeometry width="50" height="50" relative="1" as="geometry">
                        <mxPoint x="-321.5" y="490" as="sourcePoint"/>
                        <mxPoint x="-280" y="390" as="targetPoint"/>
                    </mxGeometry>
                </mxCell>
                <mxCell id="194" value="S" style="ellipse;whiteSpace=wrap;html=1;aspect=fixed;fontColor=#ffffff;fillColor=#e51400;strokeColor=#B20000;" vertex="1" parent="1">
                    <mxGeometry x="-280" y="301" width="23" height="23" as="geometry"/>
                </mxCell>
                <mxCell id="195" value="T" style="ellipse;whiteSpace=wrap;html=1;aspect=fixed;fontColor=#ffffff;fillColor=#e51400;strokeColor=#B20000;" vertex="1" parent="1">
                    <mxGeometry x="-310" y="301" width="23" height="23" as="geometry"/>
                </mxCell>
                <mxCell id="196" value="R" style="ellipse;whiteSpace=wrap;html=1;aspect=fixed;fontColor=#ffffff;fillColor=#e51400;strokeColor=#B20000;" vertex="1" parent="1">
                    <mxGeometry x="-287" y="414" width="23" height="23" as="geometry"/>
                </mxCell>
                <mxCell id="197" value="I" style="ellipse;whiteSpace=wrap;html=1;aspect=fixed;fontColor=#ffffff;fillColor=#e51400;strokeColor=#B20000;" vertex="1" parent="1">
                    <mxGeometry x="-310" y="334.5" width="23" height="23" as="geometry"/>
                </mxCell>
                <mxCell id="198" value="D" style="ellipse;whiteSpace=wrap;html=1;aspect=fixed;fontColor=#ffffff;fillColor=#e51400;strokeColor=#B20000;" vertex="1" parent="1">
                    <mxGeometry x="-240" y="483" width="23" height="23" as="geometry"/>
                </mxCell>
                <mxCell id="199" value="E" style="ellipse;whiteSpace=wrap;html=1;aspect=fixed;fontColor=#ffffff;fillColor=#e51400;strokeColor=#B20000;" vertex="1" parent="1">
                    <mxGeometry x="-240" y="221" width="23" height="23" as="geometry"/>
                </mxCell>
                <mxCell id="204" value="E" style="ellipse;whiteSpace=wrap;html=1;aspect=fixed;fontColor=#ffffff;fillColor=#e51400;strokeColor=#B20000;" vertex="1" parent="1">
                    <mxGeometry x="420" y="102" width="23" height="23" as="geometry"/>
                </mxCell>
                <mxCell id="205" value="I" style="ellipse;whiteSpace=wrap;html=1;aspect=fixed;fontColor=#ffffff;fillColor=#e51400;strokeColor=#B20000;" vertex="1" parent="1">
                    <mxGeometry x="430" y="542.5" width="23" height="23" as="geometry"/>
                </mxCell>
                <mxCell id="207" value="D" style="ellipse;whiteSpace=wrap;html=1;aspect=fixed;fontColor=#ffffff;fillColor=#e51400;strokeColor=#B20000;" vertex="1" parent="1">
                    <mxGeometry x="180" y="345.5" width="23" height="23" as="geometry"/>
                </mxCell>
                <mxCell id="208" value="R" style="ellipse;whiteSpace=wrap;html=1;aspect=fixed;fontColor=#ffffff;fillColor=#e51400;strokeColor=#B20000;" vertex="1" parent="1">
                    <mxGeometry x="2" y="391" width="23" height="23" as="geometry"/>
                </mxCell>
                <mxCell id="209" value="T" style="ellipse;whiteSpace=wrap;html=1;aspect=fixed;fontColor=#ffffff;fillColor=#e51400;strokeColor=#B20000;" vertex="1" parent="1">
                    <mxGeometry x="570" y="238.5" width="23" height="23" as="geometry"/>
                </mxCell>
                <mxCell id="211" value="" style="edgeStyle=none;html=1;fontColor=#FFFFFF;startArrow=none;startFill=0;endArrow=classic;endFill=1;strokeWidth=1;" edge="1" parent="1" source="210">
                    <mxGeometry relative="1" as="geometry">
                        <mxPoint x="614.9999999999998" y="613.9999999999998" as="targetPoint"/>
                    </mxGeometry>
                </mxCell>
                <mxCell id="210" value="T" style="ellipse;whiteSpace=wrap;html=1;aspect=fixed;fontColor=#ffffff;fillColor=#e51400;strokeColor=#B20000;" vertex="1" parent="1">
                    <mxGeometry x="592" y="602.5" width="23" height="23" as="geometry"/>
                </mxCell>
                <mxCell id="212" value="S" style="ellipse;whiteSpace=wrap;html=1;aspect=fixed;fontColor=#ffffff;fillColor=#e51400;strokeColor=#B20000;" vertex="1" parent="1">
                    <mxGeometry x="-306" y="170" width="23" height="23" as="geometry"/>
                </mxCell>
                <mxCell id="213" value="T" style="ellipse;whiteSpace=wrap;html=1;aspect=fixed;fontColor=#ffffff;fillColor=#e51400;strokeColor=#B20000;" vertex="1" parent="1">
                    <mxGeometry x="-278" y="170" width="23" height="23" as="geometry"/>
                </mxCell>
                <mxCell id="214" value="I" style="ellipse;whiteSpace=wrap;html=1;aspect=fixed;fontColor=#ffffff;fillColor=#e51400;strokeColor=#B20000;" vertex="1" parent="1">
                    <mxGeometry x="-250" y="170" width="23" height="23" as="geometry"/>
                </mxCell>
                <mxCell id="215" value="S" style="ellipse;whiteSpace=wrap;html=1;aspect=fixed;fontColor=#ffffff;fillColor=#e51400;strokeColor=#B20000;" vertex="1" parent="1">
                    <mxGeometry x="35.5" y="305" width="23" height="23" as="geometry"/>
                </mxCell>
                <mxCell id="216" value="T" style="ellipse;whiteSpace=wrap;html=1;aspect=fixed;fontColor=#ffffff;fillColor=#e51400;strokeColor=#B20000;" vertex="1" parent="1">
                    <mxGeometry x="63.5" y="305" width="23" height="23" as="geometry"/>
                </mxCell>
                <mxCell id="217" value="I" style="ellipse;whiteSpace=wrap;html=1;aspect=fixed;fontColor=#ffffff;fillColor=#e51400;strokeColor=#B20000;" vertex="1" parent="1">
                    <mxGeometry x="91.5" y="305" width="23" height="23" as="geometry"/>
                </mxCell>
                <mxCell id="218" style="edgeStyle=none;html=1;exitX=0;exitY=0.25;exitDx=0;exitDy=0;fontColor=#0A0A0A;endArrow=none;endFill=0;" edge="1" parent="1" source="23">
                    <mxGeometry relative="1" as="geometry">
                        <mxPoint x="-210" y="220" as="targetPoint"/>
                        <mxPoint x="40" y="213" as="sourcePoint"/>
                        <Array as="points"/>
                    </mxGeometry>
                </mxCell>
                <mxCell id="222" value="&lt;span style=&quot;font-family: helvetica; font-size: 11px; font-style: normal; font-weight: 400; letter-spacing: normal; text-align: center; text-indent: 0px; text-transform: none; word-spacing: 0px; display: inline; float: none;&quot;&gt;WiFi&lt;/span&gt;" style="text;whiteSpace=wrap;html=1;fontSize=12;fontFamily=Helvetica;fontColor=default;labelBackgroundColor=none;" vertex="1" parent="1">
                    <mxGeometry x="-247" y="331" width="30" height="30" as="geometry"/>
                </mxCell>
                <mxCell id="225" value="访问请求" style="text;html=1;strokeColor=none;fillColor=none;align=center;verticalAlign=middle;whiteSpace=wrap;rounded=0;fontFamily=Helvetica;fontSize=12;fontColor=default;" vertex="1" parent="1">
                    <mxGeometry x="-321.5" y="224" width="60" height="30" as="geometry"/>
                </mxCell>
                <mxCell id="227" value="&lt;span style=&quot;font-family: helvetica; font-size: 11px; font-style: normal; font-weight: 400; letter-spacing: normal; text-align: center; text-indent: 0px; text-transform: none; word-spacing: 0px; display: inline; float: none;&quot;&gt;BLE&lt;/span&gt;" style="text;whiteSpace=wrap;html=1;fontSize=12;fontFamily=Helvetica;fontColor=default;labelBackgroundColor=none;" vertex="1" parent="1">
                    <mxGeometry x="-250" y="387.5" width="30" height="30" as="geometry"/>
                </mxCell>
                <mxCell id="228" value="&lt;span style=&quot;font-family: helvetica; font-size: 11px; font-style: normal; font-weight: 400; letter-spacing: normal; text-align: center; text-indent: 0px; text-transform: none; word-spacing: 0px; display: inline; float: none;&quot;&gt;4G/5G&lt;/span&gt;" style="text;whiteSpace=wrap;html=1;fontSize=12;fontFamily=Helvetica;fontColor=default;labelBackgroundColor=none;" vertex="1" parent="1">
                    <mxGeometry x="-247" y="290" width="30" height="30" as="geometry"/>
                </mxCell>
                <mxCell id="233" value="&lt;meta charset=&quot;utf-8&quot;&gt;&lt;span style=&quot;font-family: helvetica; font-size: 11px; font-style: normal; font-weight: 400; letter-spacing: normal; text-align: center; text-indent: 0px; text-transform: none; word-spacing: 0px; display: inline; float: none;&quot;&gt;数据处理请求&lt;/span&gt;" style="text;whiteSpace=wrap;html=1;fontSize=12;fontFamily=Helvetica;fontColor=default;labelBackgroundColor=none;" vertex="1" parent="1">
                    <mxGeometry x="-273.5" y="524" width="90" height="30" as="geometry"/>
                </mxCell>
                <mxCell id="234" value="&lt;div style=&quot;text-align: center&quot;&gt;&lt;span style=&quot;font-size: 11px&quot;&gt;&lt;font face=&quot;helvetica&quot;&gt;访问请求&lt;/font&gt;&lt;/span&gt;&lt;/div&gt;" style="text;whiteSpace=wrap;html=1;fontSize=12;fontFamily=Helvetica;fontColor=default;labelBackgroundColor=none;" vertex="1" parent="1">
                    <mxGeometry x="-290" y="371" width="70" height="30" as="geometry"/>
                </mxCell>
                <mxCell id="259" value="&lt;meta charset=&quot;utf-8&quot;&gt;&lt;span style=&quot;color: rgb(255, 255, 255); font-family: helvetica; font-size: 11px; font-style: normal; font-weight: 400; letter-spacing: normal; text-align: center; text-indent: 0px; text-transform: none; word-spacing: 0px; background-color: rgb(42, 42, 42); display: inline; float: none;&quot;&gt;读取&lt;/span&gt;" style="text;whiteSpace=wrap;html=1;fontSize=12;fontFamily=Helvetica;fontColor=default;align=center;verticalAlign=middle;rounded=0;" vertex="1" parent="1">
                    <mxGeometry x="620" y="417.5" width="50" height="30" as="geometry"/>
                </mxCell>
                <mxCell id="260" value="&lt;meta charset=&quot;utf-8&quot;&gt;&lt;span style=&quot;color: rgb(255, 255, 255); font-family: helvetica; font-size: 11px; font-style: normal; font-weight: 400; letter-spacing: normal; text-align: center; text-indent: 0px; text-transform: none; word-spacing: 0px; background-color: rgb(42, 42, 42); display: inline; float: none;&quot;&gt;写入&lt;/span&gt;" style="text;whiteSpace=wrap;html=1;fontSize=12;fontFamily=Helvetica;fontColor=default;align=center;verticalAlign=middle;rounded=0;" vertex="1" parent="1">
                    <mxGeometry x="670" y="437" width="50" height="30" as="geometry"/>
                </mxCell>
                <mxCell id="261" value="升级请求" style="text;html=1;strokeColor=none;fillColor=none;align=center;verticalAlign=middle;whiteSpace=wrap;rounded=0;" vertex="1" parent="1">
                    <mxGeometry x="457.5" y="90" width="125" height="30" as="geometry"/>
                </mxCell>
                <mxCell id="262" value="升级响应" style="text;html=1;strokeColor=none;fillColor=none;align=center;verticalAlign=middle;whiteSpace=wrap;rounded=0;" vertex="1" parent="1">
                    <mxGeometry x="420" y="146" width="125" height="30" as="geometry"/>
                </mxCell>
                <mxCell id="263" value="升级" style="text;html=1;strokeColor=none;fillColor=none;align=center;verticalAlign=middle;whiteSpace=wrap;rounded=0;" vertex="1" parent="1">
                    <mxGeometry x="532" y="125" width="125" height="30" as="geometry"/>
                </mxCell>
                <mxCell id="264" value="读取" style="text;html=1;strokeColor=none;fillColor=none;align=center;verticalAlign=middle;whiteSpace=wrap;rounded=0;" vertex="1" parent="1">
                    <mxGeometry x="502.5" y="166.5" width="45" height="30" as="geometry"/>
                </mxCell>
                <mxCell id="265" value="写入" style="text;html=1;strokeColor=none;fillColor=none;align=center;verticalAlign=middle;whiteSpace=wrap;rounded=0;" vertex="1" parent="1">
                    <mxGeometry x="559" y="191" width="45" height="30" as="geometry"/>
                </mxCell>
                <mxCell id="266" value="传感数据存储" style="text;html=1;strokeColor=none;fillColor=none;align=center;verticalAlign=middle;whiteSpace=wrap;rounded=0;" vertex="1" parent="1">
                    <mxGeometry x="620" y="235" width="45" height="30" as="geometry"/>
                </mxCell>
                <mxCell id="267" value="固件代码存储" style="text;html=1;strokeColor=none;fillColor=none;align=center;verticalAlign=middle;whiteSpace=wrap;rounded=0;" vertex="1" parent="1">
                    <mxGeometry x="502.5" y="235" width="45" height="30" as="geometry"/>
                </mxCell>
                <mxCell id="268" value="写入" style="text;html=1;strokeColor=none;fillColor=none;align=center;verticalAlign=middle;whiteSpace=wrap;rounded=0;" vertex="1" parent="1">
                    <mxGeometry x="604" y="298" width="45" height="30" as="geometry"/>
                </mxCell>
                <mxCell id="269" value="读取" style="text;html=1;strokeColor=none;fillColor=none;align=center;verticalAlign=middle;whiteSpace=wrap;rounded=0;" vertex="1" parent="1">
                    <mxGeometry x="542.5" y="275" width="45" height="30" as="geometry"/>
                </mxCell>
                <mxCell id="270" value="数据&lt;br&gt;处理" style="text;html=1;strokeColor=none;fillColor=none;align=center;verticalAlign=middle;whiteSpace=wrap;rounded=0;" vertex="1" parent="1">
                    <mxGeometry x="507.5" y="375" width="45" height="30" as="geometry"/>
                </mxCell>
                <mxCell id="271" value="预测&lt;br&gt;判决" style="text;html=1;strokeColor=none;fillColor=none;align=center;verticalAlign=middle;whiteSpace=wrap;rounded=0;" vertex="1" parent="1">
                    <mxGeometry x="657" y="365" width="45" height="30" as="geometry"/>
                </mxCell>
                <mxCell id="272" value="规划请求" style="text;html=1;strokeColor=none;fillColor=none;align=center;verticalAlign=middle;whiteSpace=wrap;rounded=0;" vertex="1" parent="1">
                    <mxGeometry x="581" y="384" width="45" height="30" as="geometry"/>
                </mxCell>
                <mxCell id="273" value="规划响应" style="text;html=1;strokeColor=none;fillColor=none;align=center;verticalAlign=middle;whiteSpace=wrap;rounded=0;" vertex="1" parent="1">
                    <mxGeometry x="552.5" y="447.5" width="57.5" height="30" as="geometry"/>
                </mxCell>
                <mxCell id="274" value="密码计算请求" style="text;html=1;strokeColor=none;fillColor=none;align=center;verticalAlign=middle;whiteSpace=wrap;rounded=0;" vertex="1" parent="1">
                    <mxGeometry x="443" y="447.5" width="45" height="30" as="geometry"/>
                </mxCell>
                <mxCell id="276" value="密码计算响应" style="text;html=1;strokeColor=none;fillColor=none;align=center;verticalAlign=middle;whiteSpace=wrap;rounded=0;" vertex="1" parent="1">
                    <mxGeometry x="419" y="513" width="45" height="30" as="geometry"/>
                </mxCell>
                <mxCell id="277" value="密码计算" style="text;html=1;strokeColor=none;fillColor=none;align=center;verticalAlign=middle;whiteSpace=wrap;rounded=0;" vertex="1" parent="1">
                    <mxGeometry x="500" y="496" width="60" height="30" as="geometry"/>
                </mxCell>
                <mxCell id="278" value="算法代码及结果存储" style="text;html=1;strokeColor=none;fillColor=none;align=center;verticalAlign=middle;whiteSpace=wrap;rounded=0;" vertex="1" parent="1">
                    <mxGeometry x="595.75" y="479" width="128.5" height="30" as="geometry"/>
                </mxCell>
                <mxCell id="279" value="写入随机数/HASH值" style="text;html=1;strokeColor=none;fillColor=none;align=center;verticalAlign=middle;whiteSpace=wrap;rounded=0;" vertex="1" parent="1">
                    <mxGeometry x="657" y="534" width="128.5" height="30" as="geometry"/>
                </mxCell>
                <mxCell id="280" value="读取私钥" style="text;html=1;strokeColor=none;fillColor=none;align=center;verticalAlign=middle;whiteSpace=wrap;rounded=0;" vertex="1" parent="1">
                    <mxGeometry x="504" y="564" width="128.5" height="30" as="geometry"/>
                </mxCell>
                <mxCell id="281" value="密钥、HASH存储" style="text;html=1;strokeColor=none;fillColor=none;align=center;verticalAlign=middle;whiteSpace=wrap;rounded=0;" vertex="1" parent="1">
                    <mxGeometry x="610.38" y="599" width="128.5" height="30" as="geometry"/>
                </mxCell>
                <mxCell id="282" value="" style="shape=partialRectangle;whiteSpace=wrap;html=1;left=0;right=0;fillColor=none;fontColor=#FFFFFF;" vertex="1" parent="1">
                    <mxGeometry x="630" y="594" width="89.25" height="40" as="geometry"/>
                </mxCell>
                <mxCell id="283" value="雷达信号" style="text;html=1;strokeColor=none;fillColor=none;align=center;verticalAlign=middle;whiteSpace=wrap;rounded=0;" vertex="1" parent="1">
                    <mxGeometry x="-150" y="539" width="128.5" height="30" as="geometry"/>
                </mxCell>
                <mxCell id="284" value="光影图像" style="text;html=1;strokeColor=none;fillColor=none;align=center;verticalAlign=middle;whiteSpace=wrap;rounded=0;" vertex="1" parent="1">
                    <mxGeometry x="-154.25" y="466" width="128.5" height="30" as="geometry"/>
                </mxCell>
                <mxCell id="285" value="USB" style="text;html=1;strokeColor=none;fillColor=none;align=center;verticalAlign=middle;whiteSpace=wrap;rounded=0;" vertex="1" parent="1">
                    <mxGeometry x="-170" y="208.5" width="128.5" height="30" as="geometry"/>
                </mxCell>
                <mxCell id="286" value="CABLE" style="text;html=1;strokeColor=none;fillColor=none;align=center;verticalAlign=middle;whiteSpace=wrap;rounded=0;" vertex="1" parent="1">
                    <mxGeometry x="-170" y="176" width="128.5" height="30" as="geometry"/>
                </mxCell>
                <mxCell id="287" value="&lt;div style=&quot;text-align: left&quot;&gt;&lt;span&gt;威胁类型：&lt;/span&gt;&lt;/div&gt;&lt;div style=&quot;text-align: left&quot;&gt;&lt;span&gt;仿冒（S）&lt;/span&gt;&lt;/div&gt;&lt;div style=&quot;text-align: left&quot;&gt;&lt;span&gt;篡改（T）&lt;/span&gt;&lt;/div&gt;&lt;div style=&quot;text-align: left&quot;&gt;&lt;span&gt;抵赖（R）&lt;/span&gt;&lt;/div&gt;&lt;div style=&quot;text-align: left&quot;&gt;&lt;span&gt;信息泄露（I）&lt;/span&gt;&lt;/div&gt;&lt;div style=&quot;text-align: left&quot;&gt;&lt;span&gt;拒绝服务（D）&lt;/span&gt;&lt;/div&gt;&lt;div style=&quot;text-align: left&quot;&gt;&lt;span&gt;权限提升（E）&lt;/span&gt;&lt;/div&gt;" style="text;html=1;strokeColor=none;fillColor=none;align=center;verticalAlign=middle;whiteSpace=wrap;rounded=0;" vertex="1" parent="1">
                    <mxGeometry x="-391.5" y="40" width="137" height="130" as="geometry"/>
                </mxCell>
                <mxCell id="288" value="数据处理请求" style="text;html=1;strokeColor=none;fillColor=none;align=center;verticalAlign=middle;whiteSpace=wrap;rounded=0;" vertex="1" parent="1">
                    <mxGeometry x="410" y="338.5" width="92.5" height="30" as="geometry"/>
                </mxCell>
            </root>
        </mxGraphModel>
    </diagram>
</mxfile>